# xmcd
#
# Track frame offsets:
#	150
#	16611
#	31118
#	45047
#	59149
#	75984
#	92740
#	106401
#	122276
#	138260
#	154807
#	167549
#	181933
#	195990
#	213293
#	231378
#	244569
#	259398
#
# Disc length: 3605 seconds
#
# Revision: 1
# Processed by: cddbd v1.5.2PL0 Copyright (c) Steve Scherf et al.
# Submitted via: audiograbber 1.83.01
#
DISCID=d50e1312
DTITLE=Fátima Leão - Ao Vivo
DYEAR=2008
DGENRE=Sertanejo
TTITLE0=me engana que eu gosto
TTITLE1=alô
TTITLE2=morto de saudade
TTITLE3=dormí na praça
TTITLE4=olhos vendados
TTITLE5=fruto especial
TTITLE6=muda de vida
TTITLE7=quase me chamou de amor
TTITLE8=pra desbotar a saudade
TTITLE9=Deus te fez assim
TTITLE10=você só me faz feliz
TTITLE11=e Deus por nós
TTITLE12=gostoso sentimento
TTITLE13=só quem amou demais
TTITLE14=foge de mim
TTITLE15=apenas um sorriso
TTITLE16=tranca a porta e me beija
TTITLE17=seguindo pra indaiatuba
EXTD=
EXTT0=
EXTT1=
EXTT2=
EXTT3=
EXTT4=
EXTT5=
EXTT6=
EXTT7=
EXTT8=
EXTT9=
EXTT10=
EXTT11=
EXTT12=
EXTT13=
EXTT14=
EXTT15=
EXTT16=
EXTT17=
PLAYORDER=
